<svg width="24" height="24" viewBox="0 0 24 24" fill="none" xmlns="http://www.w3.org/2000/svg">
<g clip-path="url(#clip0_16261_7690)">
<circle cx="12" cy="12.0005" r="11.52" fill="#EA4C89"/>
<path fill-rule="evenodd" clip-rule="evenodd" d="M12 0C5.37528 0 0 5.37528 0 12C0 18.6247 5.37528 24 12 24C18.6117 24 24 18.6247 24 12C24 5.37528 18.6117 0 12 0ZM19.9262 5.53143C21.3579 7.27547 22.2169 9.50108 22.243 11.9089C21.9046 11.8438 18.5206 11.154 15.1106 11.5835C15.0325 11.4143 14.9675 11.2321 14.8894 11.0499C14.6811 10.5553 14.4468 10.0477 14.2126 9.56614C17.987 8.03036 19.705 5.81778 19.9262 5.53143ZM12 1.77008C14.603 1.77008 16.9848 2.74622 18.7939 4.34709C18.6117 4.60739 17.0629 6.67682 13.4187 8.0434C11.7397 4.9588 9.87852 2.43386 9.5922 2.0434C10.3601 1.86119 11.167 1.77008 12 1.77008ZM7.63992 2.73322C7.91323 3.09763 9.73536 5.63561 11.4403 8.65512C6.65076 9.9306 2.42083 9.90458 1.96529 9.90458C2.62906 6.72888 4.77658 4.08679 7.63992 2.73322ZM1.74403 12.013C1.74403 11.9089 1.74403 11.8048 1.74403 11.7007C2.18655 11.7137 7.15836 11.7787 12.2733 10.243C12.5727 10.8156 12.846 11.4013 13.1063 11.987C12.9761 12.026 12.833 12.0651 12.7028 12.1041C7.41866 13.8091 4.60738 18.4686 4.37311 18.859C2.7462 17.0499 1.74403 14.6421 1.74403 12.013ZM12 22.256C9.63125 22.256 7.44468 21.449 5.71366 20.0954C5.89589 19.718 7.97832 15.7093 13.757 13.692C13.7831 13.679 13.7961 13.679 13.8221 13.6659C15.2668 17.4013 15.8525 20.538 16.0087 21.436C14.7722 21.9696 13.4187 22.256 12 22.256ZM17.7137 20.4989C17.6095 19.8742 17.0629 16.8807 15.7224 13.1974C18.9371 12.6898 21.7484 13.5228 22.0998 13.6399C21.6573 16.4903 20.0173 18.9501 17.7137 20.4989Z" fill="#C32361"/>
</g>
<defs>
<clipPath id="clip0_16261_7690">
<rect width="24" height="24" fill="white"/>
</clipPath>
</defs>
</svg>
