<svg width="24" height="25" viewBox="0 0 24 25" fill="none" xmlns="http://www.w3.org/2000/svg">
<path d="M19.23 15.7446L16.69 15.4546C16.3914 15.4196 16.0886 15.4526 15.8046 15.5513C15.5206 15.6501 15.2626 15.8119 15.05 16.0246L13.21 17.8646C10.3714 16.4206 8.0641 14.1132 6.62004 11.2746L8.47004 9.42463C8.90004 8.99463 9.11004 8.39463 9.04004 7.78463L8.75004 5.26463C8.69356 4.77672 8.45951 4.32665 8.0925 4.00022C7.7255 3.67379 7.25121 3.49383 6.76004 3.49463H5.03004C3.90004 3.49463 2.96004 4.43463 3.03004 5.56463C3.56004 14.1046 10.39 20.9246 18.92 21.4546C20.05 21.5246 20.99 20.5846 20.99 19.4546V17.7246C21 16.7146 20.24 15.8646 19.23 15.7446Z" fill="black"/>
</svg>
