<svg width="24" height="24" viewBox="0 0 24 24" fill="none" xmlns="http://www.w3.org/2000/svg">
<path fill-rule="evenodd" clip-rule="evenodd" d="M16.6346 10.4812C16.6239 10.5981 16.6188 10.685 16.6096 10.877L16.6048 10.977L16.6882 11.0324C16.7825 11.095 16.9157 11.1333 17.0797 11.1398L17.0879 11.1401L17.0961 11.1397C17.3495 11.126 17.6372 11.0445 17.9385 10.9001C18.0156 10.8616 18.1076 10.8453 18.205 10.8453C18.3115 10.8453 18.42 10.866 18.5095 10.9036L18.5148 10.9059L18.5203 10.9078C18.7863 10.9997 18.9445 11.1806 18.9487 11.3704C18.9531 11.619 18.7 11.8633 18.1522 12.0803C18.0904 12.1061 18.0137 12.1326 17.9059 12.1663C17.6256 12.2547 17.4687 12.3118 17.2998 12.3975C17.0501 12.5243 16.8751 12.6756 16.7923 12.8718C16.6935 13.0942 16.7245 13.3588 16.868 13.6565L16.8813 13.6888C16.8938 13.7189 16.9194 13.7752 16.952 13.8417C17.0008 13.9411 17.0588 14.0506 17.126 14.1676C17.3123 14.4916 17.5375 14.8192 17.8029 15.1322C18.5549 16.0192 19.486 16.63 20.6058 16.8144C20.7037 16.8301 20.7755 16.9178 20.7714 17.0163C20.7661 17.0608 20.7569 17.0988 20.7439 17.128C20.5903 17.4799 19.8511 17.7809 18.5089 17.9873L18.4361 17.9985L18.3929 18.0581C18.3915 18.06 18.3915 18.06 18.3902 18.0619C18.345 18.1264 18.3132 18.225 18.2755 18.3814C18.2634 18.4313 18.2548 18.4699 18.2371 18.5512C18.1793 18.8057 18.1702 18.8435 18.1379 18.9543C18.1001 19.0831 18.0246 19.1399 17.8923 19.1399H17.8683C17.7643 19.1399 17.6376 19.126 17.4964 19.0957C17.137 19.0239 16.8503 18.9896 16.5032 18.9896C16.2868 18.9896 16.0574 19.0107 15.7909 19.0518C15.5546 19.0927 15.3308 19.1795 15.0879 19.3158C14.9051 19.4184 14.7595 19.516 14.429 19.7496C13.9468 20.092 13.7132 20.2414 13.3945 20.389C12.9739 20.5839 12.5437 20.6854 12.0593 20.6854C12.044 20.6854 12.0287 20.6847 12.0004 20.6828C11.9583 20.68 11.9474 20.6794 11.9269 20.6794H11.9093L11.892 20.6828C11.8856 20.6841 11.8767 20.6849 11.8628 20.6852C11.8562 20.6854 11.8504 20.6854 11.8367 20.6854C11.4037 20.6854 11.0126 20.6029 10.6333 20.4449C10.3293 20.3183 10.0559 20.1574 9.6878 19.9036C9.62802 19.8624 9.61283 19.8518 9.46644 19.7492C8.82531 19.2899 8.53061 19.1245 8.10799 19.0522C7.88013 19.0103 7.63658 18.9896 7.39277 18.9896C7.04814 18.9896 6.76475 19.0268 6.40111 19.1014L6.397 19.1023C6.23381 19.1399 6.11645 19.158 6.02764 19.158C5.86727 19.158 5.7949 19.0927 5.75802 18.9663C5.73996 18.9043 5.72317 18.8388 5.70484 18.7604C5.69392 18.7138 5.65761 18.5518 5.65849 18.5556C5.64118 18.476 5.63255 18.4373 5.62052 18.3875C5.58196 18.2277 5.54975 18.1285 5.50281 18.064L5.45955 18.0045L5.38683 17.9933C4.042 17.7873 3.30622 17.4871 3.15247 17.135C3.13916 17.1049 3.12993 17.0668 3.12461 17.0223C3.12047 16.9239 3.19228 16.8362 3.28949 16.8205C4.34404 16.6465 5.23336 16.0925 5.96611 15.2805C6.26778 14.9463 6.52353 14.5889 6.73566 14.2292C6.81183 14.1001 6.8776 13.9786 6.93349 13.8667C6.95399 13.8257 6.97202 13.7882 6.98787 13.7541C6.99822 13.7319 7.00289 13.7215 7.01279 13.6992L7.02801 13.665V13.6615C7.16524 13.364 7.1961 13.1012 7.1048 12.8806C7.02206 12.6827 6.84673 12.5308 6.59615 12.4036C6.42733 12.3178 6.27111 12.261 5.99059 12.1724C5.8606 12.129 5.80392 12.1095 5.74216 12.0857C5.38412 11.944 5.1554 11.7897 5.03721 11.633C4.95374 11.5224 4.93088 11.4188 4.9503 11.3145C4.99502 11.0708 5.32746 10.8573 5.64878 10.8573C5.7192 10.8573 5.79065 10.873 5.85929 10.902C6.19479 11.06 6.49593 11.1399 6.76137 11.1399C6.94278 11.1399 7.09395 11.1007 7.20066 11.0368L7.29063 10.9829L7.28632 10.8782C7.28163 10.7639 7.27974 10.7202 7.27665 10.6594C7.27241 10.5759 7.26775 10.5028 7.26204 10.4339C7.26099 10.4161 7.25954 10.3916 7.25709 10.3501C7.25506 10.3158 7.25349 10.2893 7.25197 10.2633C7.22435 9.79326 7.21007 9.49971 7.20224 9.18997C7.17567 8.13798 7.25188 7.3853 7.47588 6.8797C7.98686 5.73055 8.78291 4.97403 9.77466 4.5364C10.4602 4.23392 11.1548 4.11621 11.7585 4.11621H12.1134C12.7205 4.11621 13.4169 4.23381 14.1058 4.53651C15.1019 4.97414 15.905 5.73104 16.4268 6.88113C16.6002 7.26671 16.6878 7.80966 16.7057 8.51C16.7192 9.03626 16.7002 9.49257 16.6401 10.4312L16.6346 10.4812Z" fill="#FFFC00"/>
<path fill-rule="evenodd" clip-rule="evenodd" d="M12.1134 4.31225C12.7929 4.31225 15.1261 4.49265 16.2266 6.95824C16.5875 7.77004 16.4973 9.2433 16.4191 10.422C16.4071 10.6084 16.395 10.7888 16.389 10.9632L16.383 11.0354L16.4311 11.0895C16.4492 11.1135 16.6416 11.306 17.0566 11.324H17.0625H17.0686C17.3451 11.312 17.6579 11.2278 17.9945 11.0714C18.0427 11.0474 18.1089 11.0354 18.181 11.0354C18.2592 11.0354 18.3433 11.0534 18.4155 11.0775L18.4276 11.0834C18.608 11.1436 18.7283 11.2638 18.7342 11.3721C18.7342 11.4322 18.6921 11.6488 18.0607 11.8954C18.0006 11.9194 17.9165 11.9434 17.8263 11.9734C17.4174 12.1058 16.798 12.2982 16.5875 12.7913C16.4672 13.068 16.5032 13.3926 16.6836 13.7595C16.7558 13.934 17.9285 16.5678 20.5564 17.0007C20.5564 17.0129 20.5503 17.0249 20.5443 17.0429C20.5022 17.1451 20.2135 17.512 18.4516 17.7826C18.1749 17.8247 18.1089 18.1373 18.0307 18.4922C18.0006 18.6184 17.9766 18.7507 17.9344 18.8831C17.9224 18.9251 17.9224 18.9251 17.8743 18.9251H17.8563C17.7781 18.9251 17.6579 18.9071 17.5195 18.8831C17.267 18.8349 16.9242 18.7748 16.4912 18.7748C16.2446 18.7748 15.9921 18.7988 15.7455 18.8349C15.2043 18.9251 14.7653 19.2378 14.3023 19.5626C13.6768 20.0016 13.0334 20.4585 12.0472 20.4585C12.0051 20.4585 11.963 20.4585 11.921 20.4526H11.909H11.8968H11.8247C10.8384 20.4526 10.195 19.9955 9.56971 19.5565C9.10657 19.2258 8.66757 18.9191 8.12638 18.8289C7.87384 18.7868 7.62131 18.7687 7.38078 18.7687C6.94178 18.7687 6.59891 18.8349 6.35245 18.8831C6.21412 18.9131 6.09385 18.9311 6.01565 18.9311C5.94945 18.9311 5.94945 18.9251 5.93745 18.8831C5.89538 18.7507 5.87138 18.6125 5.84132 18.4861C5.76312 18.1253 5.69692 17.8127 5.42025 17.7705C3.65832 17.4999 3.37572 17.1331 3.32759 17.0308C3.32152 17.0129 3.31559 17.0007 3.31559 16.9887C5.94945 16.5558 7.11611 13.9218 7.18825 13.7475C7.36865 13.3806 7.39871 13.056 7.28451 12.7793C7.07405 12.2862 6.45465 12.0937 6.04572 11.9614C5.94945 11.9314 5.87138 11.9074 5.81125 11.8832C5.28205 11.6728 5.11365 11.4623 5.13765 11.3361C5.16772 11.1858 5.42025 11.0354 5.64285 11.0354C5.69085 11.0354 5.73898 11.0414 5.76905 11.0594C6.12985 11.2278 6.46665 11.318 6.75531 11.318C7.21238 11.318 7.41678 11.1076 7.44091 11.0834L7.48891 11.0294L7.48298 10.9572C7.47098 10.7828 7.46491 10.6024 7.45291 10.416C7.38078 9.2313 7.28451 7.76397 7.64531 6.95218C8.73971 4.49265 11.067 4.30618 11.7526 4.30618H12.0652C12.0894 4.31225 12.1014 4.31225 12.1134 4.31225M12.1134 3.93945V3.93945H12.0713H11.7585C11.019 3.93945 8.49917 4.14385 7.31458 6.80791C6.91765 7.70384 7.01391 9.22524 7.08605 10.4461C7.09805 10.5904 7.10411 10.7407 7.11004 10.8851C7.04991 10.9211 6.93571 10.9632 6.76138 10.9632C6.52678 10.9632 6.25011 10.891 5.93152 10.7407C5.84725 10.7046 5.75098 10.6806 5.64878 10.6806C5.28205 10.6806 4.84305 10.9211 4.77685 11.2819C4.72872 11.5405 4.84305 11.9194 5.67885 12.2501C5.75705 12.2802 5.84725 12.3102 5.93745 12.3403C6.28018 12.4486 6.80345 12.617 6.94178 12.9477C7.01391 13.122 6.98385 13.3446 6.85751 13.6092C6.85751 13.6152 6.85158 13.6212 6.85158 13.6272C6.80345 13.7355 5.70298 16.2432 3.26139 16.646C3.07506 16.6761 2.93672 16.8445 2.94872 17.0369C2.95479 17.091 2.96679 17.1511 2.99079 17.2053C3.17726 17.6323 3.94699 17.9509 5.36012 18.1674C5.40825 18.2336 5.45638 18.4561 5.48645 18.5944C5.51652 18.7267 5.54658 18.8709 5.58865 19.0153C5.63072 19.1596 5.73898 19.3341 6.02765 19.3341C6.14198 19.3341 6.28018 19.3099 6.43658 19.2739C6.67118 19.2258 6.99585 19.1657 7.39278 19.1657C7.61524 19.1657 7.84971 19.1837 8.07824 19.2258C8.53531 19.304 8.92024 19.5746 9.36517 19.8933C10.0086 20.3443 10.7303 20.8615 11.8367 20.8615C11.8668 20.8615 11.8968 20.8615 11.9269 20.8555C11.963 20.8555 12.0112 20.8615 12.0593 20.8615C13.1657 20.8615 13.8873 20.3503 14.5308 19.8933C14.9818 19.5746 15.3666 19.304 15.8178 19.2258C16.0522 19.1897 16.2808 19.1657 16.5032 19.1657C16.8882 19.1657 17.1888 19.2138 17.4594 19.2679C17.6278 19.304 17.7662 19.316 17.8683 19.316H17.8803H17.8923C18.1028 19.316 18.2472 19.2077 18.3073 19.0033C18.3494 18.8589 18.3795 18.7206 18.4095 18.5883C18.4396 18.45 18.4877 18.2275 18.5357 18.1613C19.9429 17.9449 20.7187 17.6262 20.9052 17.1992C20.9292 17.1452 20.9412 17.085 20.9473 17.0308C20.9593 16.8384 20.8209 16.67 20.6345 16.64C18.1871 16.2371 17.0866 13.7234 17.0444 13.6212C17.0444 13.6152 17.0385 13.6092 17.0385 13.6031C16.9061 13.3386 16.876 13.1161 16.9542 12.9416C17.0926 12.6109 17.6157 12.4425 17.9585 12.3344C18.0547 12.3043 18.1449 12.2742 18.2171 12.244C18.8244 12.0035 19.1311 11.7089 19.1251 11.3662C19.1191 11.0956 18.9087 10.855 18.5779 10.7407C18.4636 10.6926 18.3313 10.6686 18.205 10.6686C18.1148 10.6686 17.9825 10.6806 17.8623 10.7407C17.5736 10.879 17.3091 10.9512 17.0866 10.9632C16.9362 10.9572 16.84 10.9211 16.7858 10.8851C16.7919 10.7588 16.798 10.6324 16.81 10.5002L16.8159 10.4461C16.8941 9.22524 16.9904 7.70384 16.5875 6.80791C15.3788 4.14385 12.8591 3.93945 12.1134 3.93945" fill="black"/>
</svg>
