<svg width="24" height="24" viewBox="0 0 24 24" fill="none" xmlns="http://www.w3.org/2000/svg">
<path fill-rule="evenodd" clip-rule="evenodd" d="M7.10095 0C8.41954 0 9.69981 0.370421 10.8017 1.05345C11.194 1.01153 11.5889 0.990401 11.985 0.990401C13.4424 0.990401 14.8856 1.27652 16.2321 1.83242C17.5786 2.38831 18.8021 3.2031 19.8327 4.23027C20.8633 5.25743 21.6808 6.47686 22.2385 7.81891C22.7963 9.16096 23.0834 10.5994 23.0834 12.052C23.0834 12.5682 23.0471 13.0826 22.9753 13.5916C23.1115 13.8331 23.2334 14.083 23.3402 14.34C23.6924 15.1877 23.8738 16.0961 23.8738 17.0136C23.8738 17.9311 23.6924 18.8396 23.3402 19.6872C22.9879 20.5348 22.4716 21.305 21.8207 21.9537C21.1698 22.6025 20.3971 23.1171 19.5466 23.4682C18.6962 23.8193 17.7847 24 16.8642 24C15.6032 24 14.3773 23.6614 13.3088 23.0346C12.8704 23.0871 12.4283 23.1136 11.985 23.1136C10.5275 23.1136 9.0843 22.8275 7.73778 22.2716C6.39126 21.7157 5.16778 20.9009 4.1372 19.8737C3.10662 18.8466 2.28911 17.6271 1.73137 16.2851C1.17362 14.943 0.886551 13.5046 0.886551 12.052C0.886551 11.5081 0.926797 10.9662 1.00643 10.4306C0.4134 9.38879 0.09375 8.20282 0.09375 6.984C0.09375 5.13173 0.832006 3.35532 2.14611 2.04557C3.46022 0.735812 5.24253 0 7.10095 0ZM7.77055 10.5144C8.04139 10.978 8.41565 11.3728 8.86415 11.668C9.45838 12.0568 10.0901 12.3851 10.7498 12.648C11.4874 12.9563 12.0596 13.2176 12.4666 13.432C12.8106 13.6012 13.123 13.8286 13.3898 14.104C13.5916 14.3182 13.7038 14.6016 13.7034 14.896C13.712 15.1036 13.6711 15.3103 13.5841 15.4989C13.497 15.6876 13.3662 15.8528 13.2026 15.9808C12.7654 16.2749 12.2425 16.4143 11.717 16.3768C11.4198 16.3799 11.1232 16.3493 10.833 16.2856C10.5975 16.2339 10.3673 16.1611 10.145 16.068C9.95029 15.9837 9.68442 15.8573 9.34735 15.6888C9.07628 15.5442 8.77455 15.4666 8.46735 15.4624C8.19165 15.4511 7.92215 15.5462 7.71455 15.728C7.61553 15.8223 7.53815 15.9369 7.48773 16.0639C7.43732 16.191 7.41508 16.3275 7.42255 16.464C7.41636 16.7228 7.49441 16.9766 7.64495 17.1872C7.82628 17.417 8.06074 17.5993 8.32815 17.7184C9.37415 18.1717 10.508 18.3863 11.6474 18.3464C12.4764 18.3631 13.3016 18.2286 14.0826 17.9496C14.7305 17.7195 15.2947 17.3008 15.7026 16.7472C16.1031 16.1625 16.306 15.4651 16.2818 14.7568C16.2973 14.1783 16.1525 13.6069 15.8634 13.1056C15.5697 12.6287 15.1741 12.2227 14.705 11.9168C14.1109 11.5336 13.4807 11.2096 12.8234 10.9496C12.7531 10.9152 12.6803 10.886 12.6058 10.8624C11.9322 10.584 11.4255 10.3605 11.0858 10.192C10.7824 10.0498 10.5078 9.85323 10.2754 9.612C10.0798 9.40665 9.97186 9.13318 9.97455 8.8496C9.96518 8.63361 10.014 8.41906 10.1159 8.22837C10.2178 8.03769 10.369 7.87787 10.5538 7.7656C10.9916 7.50456 11.4956 7.37566 12.005 7.3944C12.3958 7.39031 12.7854 7.43874 13.1634 7.5384C13.5739 7.6568 13.9757 7.80383 14.3658 7.9784C14.524 8.05183 14.6961 8.09056 14.8706 8.092C14.9973 8.09536 15.1234 8.07187 15.2404 8.02306C15.3575 7.97425 15.4629 7.90123 15.5498 7.8088C15.6415 7.70849 15.7126 7.59109 15.759 7.46329C15.8054 7.3355 15.8262 7.19982 15.8202 7.064C15.8243 6.80256 15.733 6.54859 15.5634 6.3496C15.3331 6.10775 15.0476 5.92545 14.7314 5.8184C14.3869 5.69192 14.0308 5.6 13.6682 5.544C13.1615 5.4609 12.6487 5.42155 12.1354 5.4264C11.3507 5.42176 10.5712 5.55303 9.83135 5.8144C9.15111 6.04405 8.54384 6.44982 8.07135 6.9904C7.61671 7.52871 7.37633 8.21566 7.39615 8.92C7.38002 9.475 7.50907 10.0246 7.77055 10.5144Z" fill="url(#paint0_linear_16138_615)"/>
<defs>
<linearGradient id="paint0_linear_16138_615" x1="7.65375" y1="4.5512" x2="18.7266" y2="23.7296" gradientUnits="userSpaceOnUse">
<stop stop-color="#00B7F0"/>
<stop offset="1" stop-color="#007CC1"/>
</linearGradient>
</defs>
</svg>
