<svg width="24" height="24" viewBox="0 0 24 24" fill="none" xmlns="http://www.w3.org/2000/svg">
<g clip-path="url(#clip0_16261_7614)">
<path d="M23.9884 6.40612C23.8816 8.74686 22.2498 11.9521 19.0938 16.0201C15.8307 20.2696 13.07 22.3941 10.8116 22.3941C9.4131 22.3941 8.22869 21.1005 7.26197 18.5123C6.61588 16.1399 5.97052 13.7677 5.32467 11.3953C4.60635 8.80854 3.83618 7.51349 3.01274 7.51349C2.83322 7.51349 2.20489 7.89197 1.12921 8.64606L0 7.18853C1.18441 6.14572 2.35298 5.10316 3.50258 4.05915C5.08227 2.69138 6.26812 1.9721 7.05845 1.89937C8.92638 1.71961 10.076 2.99882 10.5075 5.73724C10.9738 8.69166 11.2964 10.5293 11.4778 11.2486C12.0162 13.6998 12.6085 14.9238 13.2558 14.9238C13.7581 14.9238 14.5127 14.1289 15.5187 12.5391C16.5239 10.9489 17.0622 9.73903 17.1349 8.9079C17.278 7.53557 16.7394 6.84773 15.5187 6.84773C14.9442 6.84773 14.3519 6.98021 13.7425 7.24205C14.9219 3.37106 17 1.5 20.5019 1.59841C24.0038 1.69683 24.1305 3.27338 23.9884 6.40612Z" fill="#32B8E8"/>
</g>
<defs>
<clipPath id="clip0_16261_7614">
<rect width="24" height="24" fill="white"/>
</clipPath>
</defs>
</svg>
